<svg xmlns="http://www.w3.org/2000/svg" viewBox="0 0 4005.89 291.1"><defs><style>.cls-1{fill:#c19f6c;}.cls-2{fill:none;}</style></defs><title>br-huge-improved</title><g id="Layer_2" data-name="Layer 2"><g id="Layer_1-2" data-name="Layer 1"><path class="cls-1" d="M306.68,210.74c0,46.74-31.16,80.36-104.14,80.36H0V0H201.72c70.52,0,96.76,37.72,96.76,75.44,0,30.34-17.63,58.22-52.48,64.78C289.87,147.6,306.68,174.66,306.68,210.74ZM42.64,34.85v90.61H195.57c51.25,0,60.27-25,60.27-48,0-19.68-11.89-42.64-60.27-42.64Zm221,173.84c0-29.11-17.22-48.79-65.19-48.79H42.64v96.35h155.8C244.36,256.25,263.63,238.62,263.63,208.69Z"/><path class="cls-1" d="M620.74,173.84H492V291.1H449.36V0H639.19c80.36,0,104.14,46.33,104.14,85.69,0,32.8-18.86,71.75-74.62,82.41l86.51,123H703.56ZM492,139H631.4c51.66,0,67.65-27.88,67.65-53.3,0-24.19-15.17-50.84-67.24-50.84H492Z"/><path class="cls-1" d="M1142.26,227.14H932.34l-35.26,64H851.16L1015.57,0h43.87l164.41,291.1h-46.33ZM1123.4,192.7l-46.74-84.87c-20.09-35.26-29.93-52.07-39-77.49h-.82c-9,25.42-18.45,42.23-38.54,77.49L951.61,192.7Z"/><path class="cls-1" d="M1568.24,35.26H1333.72V0h293.56V32.8l-244.77,223h254.61V291.1H1323.88V257.89Z"/><path class="cls-1" d="M1766.68,291.1V0h42.64V291.1Z"/><path class="cls-1" d="M1972.5,0h42.64V254.2h222.22v36.9H1972.5Z"/><path class="cls-1" d="M2366.91,291.1V0h42.64V291.1Z"/><path class="cls-1" d="M2824.06,227.14H2614.14l-35.26,64H2533L2697.37,0h43.87l164.41,291.1h-46.33ZM2805.2,192.7l-46.74-84.87c-20.09-35.26-29.93-52.07-38.95-77.49h-.82c-9,25.42-18.45,42.23-38.54,77.49l-46.74,84.87Z"/><path class="cls-1" d="M3029.06,0h52.07l212,218.53c9.43,9.43,16.4,18.45,19.68,27.06h.82V0h39V291.1h-45.92L3088.1,66.42c-8.2-9-15.17-18-18.86-25.42H3068V291.1h-39Z"/><rect class="cls-2" x="3391.39" y="168.85" width="614.51" height="26.85"/></g></g></svg>