<svg xmlns="http://www.w3.org/2000/svg" viewBox="0 0 76.88 13.65"><defs><style>.cls-1{fill:#231f20;}</style></defs><title>ca-loading</title><g id="Layer_2" data-name="Layer 2"><g id="Layer_1-2" data-name="Layer 1"><path class="cls-1" d="M0,2.42H1.25V9.86h6.5v1.08H0Z" transform="translate(0 0)"/><path class="cls-1" d="M8.41,7.94c0-1.93,1.75-3.23,4.31-3.23S17,6,17,7.94s-1.75,3.22-4.29,3.22S8.41,9.87,8.41,7.94Zm7.41,0c0-1.4-1.22-2.29-3.1-2.29S9.6,6.54,9.6,7.94s1.22,2.29,3.12,2.29S15.82,9.34,15.82,7.94Z" transform="translate(0 0)"/><path class="cls-1" d="M18.22,9.37a1.55,1.55,0,0,1,.62-1.3,4.34,4.34,0,0,1,2.51-.62l3.79-.22V7.11c0-1-1-1.52-2.61-1.52s-2.66.47-2.85,1.35H18.44c.2-1.3,1.72-2.23,4.09-2.23s3.75.88,3.75,2.52V8.78a10.92,10.92,0,0,0,.13,2.16H25.23a8.3,8.3,0,0,1-.08-1.25c-.72,1-1.93,1.47-3.95,1.47C19.39,11.16,18.22,10.51,18.22,9.37ZM25.14,8.3V8l-3.53.2c-1.71.11-2.21.44-2.21,1.13s.77,1,2.19,1C23.65,10.31,25.14,9.56,25.14,8.3Z" transform="translate(0 0)"/><path class="cls-1" d="M27.8,8c0-1.92,1.66-3.24,4.05-3.24A4.12,4.12,0,0,1,35.3,6.12V2.24h1.14v8.7H35.32V9.7a4.09,4.09,0,0,1-3.53,1.46C29.5,11.16,27.8,9.81,27.8,8Zm7.52.17V7.84C35.32,6.56,34,5.65,32,5.65S29,6.52,29,8s1.21,2.27,3.12,2.27S35.32,9.34,35.32,8.12Z" transform="translate(0 0)"/><path class="cls-1" d="M38.93,2.46h1.35V3.85H38.93ZM39,4.94h1.12v6H39Z" transform="translate(0 0)"/><path class="cls-1" d="M42.71,4.94h1.11V6.42a3.67,3.67,0,0,1,3.46-1.71c2.28,0,3.51,1.13,3.51,3.28v2.95H49.65V8.27c0-1.73-.87-2.6-2.7-2.6s-3.12,1-3.12,2.56v2.71H42.71Z" transform="translate(0 0)"/><path class="cls-1" d="M59.17,5.34A1.73,1.73,0,0,1,60,6.84C60,8.16,58.68,9,56.49,9a5.55,5.55,0,0,1-2-.31c-.49.12-.72.34-.72.63s.33.56,1.06.56h3.61c1.5,0,2.28.55,2.28,1.63,0,1.38-1.33,2-4.26,2s-4.08-.54-4.08-1.66c0-.6.31-1,1.07-1.21a1.07,1.07,0,0,1-.76-1c0-.61.46-1,1.24-1.21a1.82,1.82,0,0,1-1-1.58c0-1.32,1.35-2.13,3.52-2.13A6,6,0,0,1,58.58,5c.18-.69.79-1.07,1.73-1.07a2.2,2.2,0,0,1,.49,0V5a2.77,2.77,0,0,0-.54,0A1.25,1.25,0,0,0,59.17,5.34Zm-4.38,5.5a6.32,6.32,0,0,1-.65,0c-.49.18-.7.44-.7.85,0,.68,1,1,3,1,2.23,0,3.18-.33,3.18-1.07,0-.52-.4-.73-1.37-.73Zm4.08-4c0-.86-.89-1.32-2.38-1.32S54.13,6,54.13,6.84,55,8.19,56.49,8.19,58.87,7.67,58.87,6.84Z" transform="translate(0 0)"/><path class="cls-1" d="M70.07,1.29l.08,0,.17-.06a1.88,1.88,0,0,1,.58-.07,3,3,0,0,1,.42,0,1.12,1.12,0,0,1,.58.38,1.31,1.31,0,0,1,.28.45,3,3,0,0,1,.08.32s0,.06,0,.08a.62.62,0,0,0,.06-.48,2,2,0,0,0-.15-.47A1.14,1.14,0,0,0,72,1.14a1.53,1.53,0,0,0-1.3-.23,1.07,1.07,0,0,0-.59.34s0,0,0,0Zm6.2,2.93a.3.3,0,0,0-.11.06l-.37.31a3.5,3.5,0,0,0-.59.63,4.37,4.37,0,0,0-.43.76,0,0,0,0,1,0,0s0,0,0-.07a1.44,1.44,0,0,1,.19-.37A.68.68,0,0,0,75,5.11a4.56,4.56,0,0,0-.14-.9c0-.06-.07-.13-.13-.12a1.74,1.74,0,0,1,.08.36,2.6,2.6,0,0,1,0,.39,1.3,1.3,0,0,1-.09.73,1,1,0,0,0-.07.15,2.56,2.56,0,0,1-.23.47s0,0,0,0,0-.06,0-.08a1.47,1.47,0,0,0,.22-.57.61.61,0,0,0,0-.19.15.15,0,0,0-.07-.12.08.08,0,0,0-.1,0,.29.29,0,0,0,0,.09,3,3,0,0,1-.14.59c-.07.19-.19.37-.26.56s-.16.4-.23.59c0,0,0,.06-.06.06s0,0,0-.06.07-.17.11-.25A3.16,3.16,0,0,0,74,6.4a2.75,2.75,0,0,0,.09-.5,1.67,1.67,0,0,0,0-.39A1.87,1.87,0,0,0,74,5a1.37,1.37,0,0,0-.52-.71A.7.7,0,0,0,73,4.17s0,0,0,0,.11,0,.16,0a1.17,1.17,0,0,1,.71.48,1.47,1.47,0,0,1,.15.34,1.3,1.3,0,0,1,0,.65c0,.19-.08.38-.12.57s-.07.28-.09.43a1.22,1.22,0,0,1-.2.59q.12.15.24,0l.13-.13a5.87,5.87,0,0,1,.65-.46,1.45,1.45,0,0,1,.48-.17l0,0a.14.14,0,0,0,0-.15.18.18,0,0,0-.17-.06.77.77,0,0,0-.25.1,3,3,0,0,0-.28.22.67.67,0,0,1-.18.11.06.06,0,0,1,0-.07,3.3,3.3,0,0,0,.3-.22.82.82,0,0,0,.2-.17c.15-.18.28-.37.42-.56l.32-.46.48-.61.25-.3a.61.61,0,0,0,.12-.15ZM73.58,0h0a1.47,1.47,0,0,0-.1.13,5.12,5.12,0,0,0-.3.57c-.06.11-.1.22-.16.34l-.26.59q-.11.26-.24.51a2.23,2.23,0,0,0-.16.43,1.23,1.23,0,0,0,0,.2s0,.07-.06.06a3.1,3.1,0,0,0,0-.43l-.16-.53s0,.23,0,.25a2.19,2.19,0,0,0,0,.51c0,.08,0,.16,0,.24v.25a0,0,0,0,1,0,0,2.84,2.84,0,0,1,0-.67.66.66,0,0,1,0-.14,1.62,1.62,0,0,0,0-.31,1.26,1.26,0,0,0-.29.12.13.13,0,0,0-.08.14,3.87,3.87,0,0,0,0,.48,1.69,1.69,0,0,0,0,.23c0,.2,0,.39.05.58a2.11,2.11,0,0,1-.05.71.17.17,0,0,0,0,.12c.12,0,.15,0,.2-.09a4.32,4.32,0,0,1,.3-.61,4,4,0,0,1,.37-.54,4,4,0,0,1,.36-.35.62.62,0,0,0,.18-.18l0,0c-.15-.1-.22-.09-.33,0a3.69,3.69,0,0,0-.43.53,1.8,1.8,0,0,0-.27.49,0,0,0,0,1,0,0,0,0,0,0,1,0,0A.56.56,0,0,1,72,3.4a7.08,7.08,0,0,1,.51-.71.7.7,0,0,1,.35-.23.9.9,0,0,0,.47-.25.53.53,0,0,1,.28-.16.82.82,0,0,1,.27,0,1.2,1.2,0,0,1,.74.39s0,0,0,0a.51.51,0,0,0-.12-.23.89.89,0,0,0-.9-.34.83.83,0,0,0-.27.12.91.91,0,0,0-.23.15.51.51,0,0,0-.09.16s0,0,0,0h0a0,0,0,0,1,0,0c0-.06,0-.11.07-.16A1.63,1.63,0,0,0,73.21,2a3.65,3.65,0,0,1,.53-.71c.09-.11.19-.2.28-.31l.19-.21a.24.24,0,0,0-.1,0L74,.89a7,7,0,0,0-.82.71A.85.85,0,0,0,72.9,2c-.05.17-.12.33-.18.49s0,0-.07,0c.06-.21.15-.41.22-.62l.21-.63.24-.62A6.21,6.21,0,0,1,73.58,0ZM73,2.52h0l0,0a1.42,1.42,0,0,1,.41.36,1.79,1.79,0,0,1,.22.34c.09.19.15.38.22.57s.08.22.13.34a0,0,0,0,0,.06,0,1.89,1.89,0,0,0,.07-.67,2.55,2.55,0,0,0-.19-.72.57.57,0,0,0-.11-.22.42.42,0,0,0-.39-.15,3.15,3.15,0,0,0-.42.09S73,2.5,73,2.52ZM70.36,3.78s0,0,0,0l.24-.44A2.16,2.16,0,0,1,71,2.79a3.88,3.88,0,0,0,.26-.31A1.64,1.64,0,0,1,71.87,2s.06,0,.07,0a.45.45,0,0,0-.15-.21.28.28,0,0,0-.17-.05.41.41,0,0,0-.22.07,1.6,1.6,0,0,0-.43.39,1.88,1.88,0,0,0-.32.59c-.08.23-.16.46-.25.7A.72.72,0,0,0,70.36,3.78Zm4.79,4.83h0a2.2,2.2,0,0,0,.24-.38,2.45,2.45,0,0,0,.21-1,2.67,2.67,0,0,0,0-.4.52.52,0,0,0-.46-.47s0,0,0,.07.11.34.14.51a2.65,2.65,0,0,1,.07.63,1.67,1.67,0,0,1,0,.31,2.16,2.16,0,0,1-.11.49C75.2,8.46,75.18,8.54,75.15,8.61Zm-3.51,1.94a.16.16,0,0,0,0,.1c.12.35.25.68.38,1s.19.48.29.72.08.19.12.29,0,.07.08.08.14-.06.17-.14c-.34-.69-.61-1.41-.92-2.12A.35.35,0,0,1,71.64,10.55Zm0-10.09s.06,0,.09,0a.4.4,0,0,1,.49.12,1.08,1.08,0,0,1,.2.4,2,2,0,0,1,.06.35,2.62,2.62,0,0,1,0,.28v.23a1.22,1.22,0,0,0,0,.27A.18.18,0,0,0,72.5,2a1.25,1.25,0,0,0,0-.19l0-.21a.67.67,0,0,0,0-.2,3.33,3.33,0,0,0-.07-.54,1.13,1.13,0,0,0-.14-.36A.48.48,0,0,0,72,.24.41.41,0,0,0,71.59.46Zm-.33,8a.25.25,0,0,0,0,.17c0,.22,0,.45.09.68a8.77,8.77,0,0,0,.25,1.13.07.07,0,0,0,0,.06c.13,0,.16-.08.13-.19s-.06-.22-.08-.32c-.07-.27-.13-.53-.18-.8a5.81,5.81,0,0,1-.09-.58.32.32,0,0,0,0-.14,0,0,0,0,0,0,0A.11.11,0,0,0,71.26,8.46Zm0-2.26,0,0c0,.13,0,.26,0,.39s0,.29,0,.43,0,.49,0,.73a3.77,3.77,0,0,1,0,.47.12.12,0,0,0,0,.1c.1,0,.12,0,.12-.09a.75.75,0,0,0,0-.15,1.82,1.82,0,0,1,0-.32,9.42,9.42,0,0,1,0-1.19.22.22,0,0,1,0-.08c0-.09,0-.17,0-.26S71.35,6.18,71.26,6.2Zm3.54.08c.08,0,.15,0,.19-.07A.72.72,0,0,1,75.2,6a2.56,2.56,0,0,1,.43-.17,9.53,9.53,0,0,1,1.14-.29s.08,0,.11,0-.06,0-.09,0h-.21a2.1,2.1,0,0,0-.74.13l-.62.23A.71.71,0,0,0,74.8,6.28ZM73.88,5a.48.48,0,0,0-.14-.23h-.08a2.68,2.68,0,0,0-.47.18,6.41,6.41,0,0,0-.68.48,2.62,2.62,0,0,1-.25.22.44.44,0,0,0-.11.12l.07,0a2.76,2.76,0,0,0,.39-.28,1.75,1.75,0,0,1,.8-.38Zm-1.5,4.8a7.74,7.74,0,0,1,.56-1.29c0-.09-.06-.09-.17-.07a5.82,5.82,0,0,0-.54,1.31C72.27,9.82,72.31,9.82,72.38,9.8Zm-.46,2.79s0,0,0,0c0,.29,0,.57,0,.86a.32.32,0,0,0,0,.09.11.11,0,0,0,.08.07.26.26,0,0,0,.15,0c0-.35,0-.69-.09-1A.28.28,0,0,0,71.92,12.59Zm-.31-8.08a.34.34,0,0,0,0,.11,4.39,4.39,0,0,0-.13.52c-.05.21-.09.42-.12.64a2.4,2.4,0,0,0,0,.28c0,.05,0,.07.07.07A.11.11,0,0,0,71.41,6c0-.22.07-.44.11-.66s.11-.44.18-.65a.76.76,0,0,0,.06-.2A.2.2,0,0,0,71.61,4.51ZM73.49,7.4l0,.06L73.06,8a2.2,2.2,0,0,0-.17.25c0,.05,0,.1,0,.12a.08.08,0,0,0,.08,0l.2-.31.22-.32a3.25,3.25,0,0,0,.23-.29C73.58,7.39,73.58,7.39,73.49,7.4ZM74.6,5.19a.54.54,0,0,0-.25-.38.63.63,0,0,0-.45-.08A1.91,1.91,0,0,1,74,5C74.21,5,74.42,5.13,74.6,5.19ZM72.35,9.91c-.1-.07-.13-.06-.16,0a3.29,3.29,0,0,0-.09.43c0,.13-.06.26-.08.4a.28.28,0,0,0,0,.2s.06.12.1.11c0-.18.06-.38.1-.57S72.29,10.1,72.35,9.91Zm-.41,1.71a3.82,3.82,0,0,0,0,.89.16.16,0,0,0,.15,0,.69.69,0,0,0,0-.2c0-.11,0-.22,0-.33a.59.59,0,0,0,0-.23S72,11.64,71.94,11.62Zm.79,1.5s.16-.1.18-.12h0a1.45,1.45,0,0,0-.17-.26h0l-.12.07a.08.08,0,0,0,0,.11A.76.76,0,0,0,72.73,13.12Z" transform="translate(0 0)"/></g></g></svg>