
<svg xmlns="http://www.w3.org/2000/svg" width="21" height="42">
  <path fill="#000" fill-rule="nonzero" d="M0 3.95960224c.08741498.00069707.17364067-.02026808.250969-.06102127.17635658-.06102126.34593023-.12882267.52228681-.17628366.57596223-.15931856 1.17324481-.22794334 1.77034884-.20340422.43472241-.0000546.86848429.04080658 1.29554264.12204253.70434006.18021307 1.33209978.58190822 1.79069767 1.1458438.37455744.39284677.67143735.85293537.875 1.35602817.10174419.44070915.13565892.53563112.2374031.98990056.0053105.09663125.04090631.18914209.10174419.26442549.24300409-.45257656.31062031-.97879945.18992248-1.4780707-.09806111-.50306301-.26227666-.99094629-.48837209-1.45095014-.16276807-.36913614-.39277436-.70480646-.67829458-.98990056-.99709302-.94921971-2.71317829-.95599985-4.00872093-.67801408-.68964926.15687779-1.31461969.52129312-1.79069767 1.04414169C.03697096 3.87727421.01380478 3.91664043 0 3.95960224zm19.0872093 9.03114756c-.1234986.021348-.2372883.0805889-.3255814.1695035l-1.1666667.9695602c-.6786882.5606921-1.2807393 1.2080853-1.7906976 1.92556-.5347067.728897-.9895135 1.5131143-1.3565892 2.3391486 0 .0474609-.0474806.0949219-.1085271.0881418-.0542636-.142383-.0542636-.142383 0-.2169645.1465251-.3981056.342504-.776234.5833333-1.1255034.2339659-.4404518.310538-.9475321.2170543-1.4373898-.036211-.9309382-.1795982-1.854607-.4273256-2.7527372-.0746124-.1830638-.2102713-.3932482-.4069767-.3729078.1189611.3603393.2074501.730025.2645348 1.105163.0745667.4079478.1243992.8200276.1492248 1.2339856.1179105.7577481.0191531 1.5333786-.2848837 2.2374465-.0765066.1526013-.140038.3113641-.1899225.4746098-.1874141.5035119-.4284645.9854135-.7189922 1.4373899 0 .047461-.0610465.0813617-.128876.0542411-.0678294-.0271205 0-.1695035.0610465-.244085.3492677-.5275739.5806235-1.1242248.6782946-1.7492764a3.42933865 3.42933865 0 0 0 0-.5898722c-.0160739-.1475706-.0984477-.2798132-.2238372-.3593475-.0860738-.0730179-.2123758-.0730179-.2984496 0-.0351362.0924514-.0623655.1877147-.0813954.2847659-.074738.6152159-.2180706 1.2201477-.4273255 1.8035175-.2170543.6102127-.5833334 1.1390636-.8071706 1.735716-.2238372.5966524-.4680232 1.2136452-.6782946 1.8238579-.0339147.0813617-.0678294.1695035-.1831395.1559433-.0434227-.0507459-.0434227-.1255379 0-.1762837.1085271-.2576454.2102713-.5152907.3255814-.7729361.1752008-.4476333.3246692-.9049081.4476744-1.3695884.1363558-.5081873.2249189-1.0279965.2645349-1.5526523.020533-.3873101.0023551-.7757018-.0542636-1.159404-.0588461-.5450049-.1864756-1.0803716-.3798449-1.5933331-.2853506-.8806424-.8496049-1.6445696-1.6075582-2.1764252-.4369878-.3032867-.97196113-.4315304-1.49903097-.3593475-.06404945 0-.12436102.0301433-.16279069.0813617.14244186.1288227.32558139.0813617.49515504.1220425.89202412.1829387 1.67504752.7120534 2.17732562 1.4712906.2099046.3197603.3699994.6695371.4748062 1.0373615.1817348.6494746.2049951 1.3330444.0678294 1.9933614-.1153101.5898723-.244186 1.1729644-.373062 1.7560565-.0949612.4474893-.2102713.8814183-.2781008 1.3560282-.0533099.6471774-.265306 1.2712595-.617248 1.8170777.2306201.3051063.4748062.3390071.7257752.094922.1316792-.1441175.2721268-.2799783.4205426-.4068085.6342818-.5285846 1.3153872-.998353 2.0348837-1.4034891.4501536-.2745321.9505346-.4566231 1.4718992-.5356311.0406977 0 .0746124-.0339007.1085272-.0542412.0813953-.2034042-.0339148-.339007-.1627907-.4678297-.121934-.1471912-.3138252-.2171766-.501938-.1830638-.2730533.0504172-.5349117.1491475-.7732558.2915461-.3187985.2034042-.5765504.4746098-.875.6780141-.154709.1402479-.3340995.2505964-.5290698.3254467-.0212075-.0345618-.0266683-.0765221-.0150129-.1153573.0116553-.0388352.0393213-.0708615.0760594-.0880469.3120155-.2305248.6172481-.4474893.9224806-.6780141.2199046-.1513325.4243781-.3239277.6104652-.5152907.4612403-.5424113.868217-1.1322835 1.2751938-1.7153756.3323643-.4746099.6782945-.9492197 1.0106589-1.4102693.4748062-.6373333.9631783-1.2611062 1.4583333-1.8848792.244186-.3186666.5155039-.6237729.7800388-.9220991.1403055-.1383032.263298-.2931186.366279-.4610496l-.0339147-.0135603zM10.8052326 0h-.0746124c-.1090943.1204791-.211014.2472601-.3052326.37968789-.3415547.57961191-.65175498 1.17712295-.92926357 1.78995717-.16957364.34578719-.3120155.67801409-.46802325 1.04414169-.27131783.61021268-.52906977 1.21364521-.8003876 1.81707774-.27131783.60343254-.51550388 1.07126225-.76647287 1.5933331-.2110747.41519683-.37052842.85465172-.4748062 1.30856718-.0463594.20006065-.06912422.40485929-.06782946.61021267 0 .10848225 0 .21018437-.18992248.20340422.01712167-.4531225-.00557524-.90687281-.06782946-1.35602816-.10174418-.40002831-.35949612-1.20686507-.48158914-1.64079408-.09496124.10170211-.09496124.67801408-.11531008.77971619-.13192072.52477732-.17999501 1.0671056-.14244186 1.60689338 0 .25086521 0 .50851056.04748062.75937577.04748062.25086521 0 .50173042 0 .75259563 0 .06102127 0 .12204254-.13565892.1152624-.11364731-.67165661-.15232103-1.35385187-.11531007-2.03404225v-.41358859c.08651181-.32720373.12534849-.66517147.11531007-1.00346084-.3199696.07802543-.62637163.20373545-.90891473.37290774-.16807666.06850198-.27045348.23998138-.25096899.42036873 0 .49495028.03391473.99668071.0881783 1.48485085 0 .23730492 0 .47460985.04748062.71191478.10174418.58987225.11531007 1.18652469.16279069 1.78317699.05539197.7333718.00513745 1.4708945-.1492248 2.1899855-.05788209.1080017-.05788209.2377856 0 .3457872.37984496.1084823.48158915.0610213.62403101-.2847659.26038036-.6413704.56405112-1.2643176.90891473-1.8645387.33818599-.5817179.7262718-1.1329802 1.15988372-1.64757424.33453899-.39427903.69969111-.76154724 1.09205426-1.09838282.22576019-.13660024.41811291-.32192379.5629845-.54241126L9.01453488 8.088708c-.46802325-.30510633-.67829457-.28476591-1.00387597.06102127-.49414141.49936176-.93722576 1.04674213-1.32267441 1.63401394-.36458378.44984289-.64908884.95898809-.84108528 1.50519129 0 0 0 .0542411-.03391472.0542411-.03240114.0103592-.06765683.0067363-.09727177-.0099957-.02961494-.0167319-.05090352-.0450556-.05873599-.0781461.06974817-.2855706.19412815-.5549492.36627907-.7932765.47517385-.7632559 1.0056642-1.49067892 1.58720931-2.17642521.26278506-.34621697.63223447-.59638565 1.05135659-.71191479.57141748-.10956622 1.09767311-.38555926 1.51259689-.79327647.2256409-.26239602.5344919-.43949306.875-.50173043.2677686-.03721963.5394019-.03721963.8071705 0 .8790709.11865365 1.6870803.54652923 2.2790698 1.20686507.0339147.04068085.0542636.11526239.1560078.10170211-.0641803-.24998225-.1848423-.48192867-.3527132-.67801408-.6418734-.86816147-1.7303416-1.28377908-2.7877907-1.06448211-.293585.07111248-.5717209.1951879-.8207364.36612761-.2614581.12527411-.50358781.28738827-.71899229.48138999-.12192085.14205657-.21210779.30848669-.26453489.48817014 0 .03390071 0 .07458155-.06104651.08814183-.02916323.00295349-.05766272-.00999547-.0746124-.0339007a.21009934.21009934 0 0 1 0-.08814183c0-.18984394.14922481-.3322269.23062016-.49495028.08139534-.16272338.17635658-.38646803.27131782-.57631197.43773711-.79918699.97817421-1.53770678 1.60755811-2.19676563.2848838-.31866662.5968993-.62377295.875-.95599985.1763566-.21018437.373062-.40002831.5833334-.67801409-.1076055.00787566-.2109174.04542811-.2984496.10848226l-.5494186.35934746c-.8863092.67589429-1.7248672 1.41216087-2.50968997 2.20354577-.34398808.32094728-.59078011.73209724-.7122093 1.18652464-.16240482.49400053-.35263107.97842414-.56976745 1.45095014 0 .06780141-.04748062.14238296-.20348837.10848225.18313954-.67801408.45445737-1.27466647.67829458-1.91877985.2238372-.64411338.43410852-1.28822676.67829457-1.93234014.24418605-.64411337.48837209-1.27466647.72577524-1.91199971.2374031-.63733324.5087209-1.22042535.7800387-1.81707774.0182292-.02336576.0208917-.05530222.006783-.08136169zM8.93992248 7.73614068c.02603202.03054775.05563631.05786348.0881783.08136169.47860127.29094219.90316052.66256466 1.25484492 1.09838282.2627814.33009457.4901283.68688163.6782946 1.0644821.2645349.56275171.4544574 1.15262391.6782946 1.73571601l.3866279 1.0441417c0 .047461.0406977.094922.1017442.1084823.0610465.0135603.0813953-.0610213.0949612-.1084823.1875475-.6606665.2564429-1.3493355.2034884-2.0340422-.0781859-.76257856-.2678669-1.50956692-.5629845-2.21710606-.0796214-.24122242-.1938624-.46960988-.3391473-.67801409-.304275-.34713043-.7642886-.5157323-1.2209302-.44748929-.42834854.06527653-.85203353.15813162-1.26841088.27798577-.04069767.01356028-.08139535.02712057-.09496124.07458155zM.90213178 11.6279415c.06782946 0 .08139535-.0678014.10174419-.1152624.2374031-.4542694.4748062-.915319.71899225-1.3560281.28997215-.56019189.64268693-1.08563331 1.05135659-1.56621257.27131783-.30510634.54263566-.62377296.80717054-.94243958.52242951-.64862492 1.19854362-1.15666604 1.96705426-1.4780707.08139535 0 .18313954-.04068084.22383721-.14238296-.09092466-.26992864-.26111397-.50620494-.48837209-.67801408-.15949275-.10051293-.34854188-.14356961-.53585271-.12204253-.24048417-.00228092-.47634276.06608979-.67829458.19662408-.51135922.32776414-.96895863.73257215-1.35658915 1.20008493-.42647101.54767157-.75047067 1.16783988-.95639534 1.83063802-.250969.67801408-.51550388 1.41704943-.77325582 2.12896419-.12040544.3344339-.148521.6951011-.08139535 1.0441417zM15.6346899 26.4832301h.0678295c.2890105-.3598432.5327569-.7537748.7257752-1.1729644.4437466-.9489655.6752178-1.9832143.6782945-3.0307229 0-.4135886 0-.8271772-.0542635-1.2339857-.0892418-.7494297-.6984008-1.3298832-1.4515504-1.3831487-.0406977.0678014 0 .1356028 0 .2034042.1356589.5220709.3187984 1.0305814.4205426 1.5594324.145935.6278025.2322354 1.2679774.257752 1.9119997a9.03423988 9.03423988 0 0 1-.0542636.9559999c-.0597763.5135314-.1781164 1.0185436-.3527132 1.5051912-.0746124.2237447-.1492248.4542695-.2374031.6847943zm-10.80523254 5.973304c-.01707309.1071011.00201909.2168357.05426357.3118865.35271318 1.057702.75968992 2.0950635 1.15988372 3.1324251.28488372.7458155.57655039 1.4848508.875 2.217106.11531008.2983262.25775194.5898723.38662791.8814183.04748062.1017021.09496124.2101844.24418604.237305.18313954-.1152624.43410853-.1559433.52906977-.4135886-1.05813953-2.1221841-1.87887597-4.3392902-2.83527132-6.5224955-.12511076.0810896-.26623376.1342779-.41375969.1559432zM4.67344961 1.41704943c.11531008 0 .18992248-.04746098.27131783-.08136169.5229491-.26526235 1.16096392-.11654911 1.5125969.35256733.29143773.36611306.50390539.7885642.62403101 1.24076577.10258133.3438597.16182478.69917341.17635659 1.05770197 0 .29154605.06104651.58309211.04748062.87463816-.01356589.29154606 0 .48139 0 .71869493a4.50015859 4.50015859 0 0 0 0 .80005662c.08295193-.07155174.1381608-.16992684.15600775-.27798578.04856807-.19123156.08034243-.38633621.09496124-.58309211.03617571-.2169645.06330749-.4429692.08139535-.67801408a3.82242343 3.82242343 0 0 0 0-.62377296c-.02027139-.53915722-.07920817-1.07616643-.17635659-1.60689337-.06839091-.38866045-.20871065-.76115878-.41375969-1.09838282-.2528875-.44892267-.71371342-.74159155-1.22771318-.77972126-.47943259-.00133225-.92040817.2621004-1.14631783.68479929zM3.65600775 26.0357408c-.04711409.1639281-.04711409.3378023 0 .5017304.10852713.6780141.17635659 1.4034891.29166667 2.1086238.18713315 1.1700622.43848146 2.3289551.75290698 3.4714321 0 .0678014.03391472.1356028.11531007.1695035.37306202-.0813617.4748062-.2440851.37984496-.5830921s-.16957364-.6780141-.25096899-.9899006c-.21027132-.8068367-.40697674-1.6204536-.53585271-2.4408507-.13638662-.603934-.23829541-1.2151338-.30523256-1.830638-.0123412-.1431624-.04194869-.284309-.08817829-.4203687-.01525538-.0535097-.06029533-.0932344-.11531008-.1017021-.0929389.0065925-.18004596.0477094-.24418605.1152624zm0-6.9699848c0 .0678014 0 .1152624-.04069767.1627234-.06782946.3932481-.10174419.7932765-.14244186 1.1933048-.04069768.4000283-.08139535.8814183-.08139535 1.3221274 0 .7525957 0 1.5051913.04069767 2.2577869.06671926.4806596.09619969.9657522.0881783 1.4509502-.02060159.1137509.02070894.2298887.10852713.3051063.29844961 0 .37306201-.0406809.37984496-.2983262a3.44289003 3.44289003 0 0 0 0-.4610496c-.05154215-.3254821-.08325432-.6537937-.09496124-.9831204 0-1.2204253-.04069767-2.4408507.05426357-3.6544959v-.2440851c.04069767-.2644255.04748062-.5356311.08139534-.8000566.03391473-.2644255-.10852713-.2983262-.39341085-.2508652zm10.90019385.2373049c.2204085.0599908.4553545-.0174026.5968992-.1966241.1760733-.2407566.4091266-.4341108.6782945-.5627516.4187874-.2203515.8599192-.3953675 1.3158915-.5220709 1.1489628-.3698894 2.3202423-.6665512 3.506783-.8881984.1204145-.0034308.2385659-.0335354.3459302-.0881419-.0833966-.0787342-.1988784-.1138663-.3120155-.0949219h-.6782946c-.7743496-.0225849-1.5458106.1040205-2.2722868.3729077-.6375969.2373049-1.2684109.4949503-1.9195736.7119148-.5813916.2246621-1.0399935.685539-1.2616279 1.2678863zm-2.8352714-3.9257015c-.0612138-.266314-.2091277-.5047862-.4205426-.6780141-.0831886-.0306105-.1745634-.0306105-.2577519 0-.4937668.1420107-.9729726.3304354-1.43120159.5627517-.74030771.4326788-1.43958742.9319577-2.08914729 1.491631-.26453488.2169645-.48837209.4746098-.77325581.6780141-.14060035.0961585-.25674449.2238642-.33914729.3729077a1.86566937 1.86566937 0 0 0 .21027132-.094922c.42054263-.2712056.82073643-.5627517 1.20736434-.867858.70163235-.5991163 1.54833561-1.003589 2.45542632-1.1729644.4845858-.0691846.9647275-.1665315 1.4379845-.291546zM7.11531008 30.1445061c.44959504-1.3674652 1.01932183-2.6924965 1.70251938-3.9596022-.14922481-.2779858-.18313954-.2915461-.50872093-.237305-.72821486 1.2773935-1.28469343 2.6452176-1.65503876 4.0680845.12887597.1830638.25775194.2034043.46124031.1288227zm-1.41085272 8.5836583a.67780024.67780024 0 0 0-.03391472.1152624c-.04069768.8881984.04069767 1.7696167.06782945 2.6578152.01218794.0912352.03731091.1802707.07461241.2644255.03852553.1109307.13496092.1916945.25096899.2101843.15919901.0456137.33000805.0261007.4748062-.0542411 0-1.0577019-.14922481-2.1154039-.27810078-3.1595456-.17603443-.0746847-.37239336-.0866528-.55620155-.0339007zm-.95639534-24.842436c-.07999572.0945524-.13792231.2057254-.16957365.3254468-.16957364.5220708-.28488372 1.0577019-.4001938 1.5865529-.14244186.6780141-.25775193 1.3153473-.35949612 1.9798011-.0632255.2825515-.09282352.5715819-.08817829.8610779 0 .142383.06782945.2305248.2238372.2237447.10240488-.0570899.16304078-.1677706.15600776-.2847659.0746124-.6780141.22383721-1.3560282.35949612-2.0340423.14483341-.6773268.33057398-1.3452635.55620155-2.0001415.07579056-.201247.12813814-.4105507.15600775-.623773-.13544521-.0648881-.29022524-.0769753-.43410852-.0339007zm5.76550388 8.8887646c0 .0542412-.0813954.1084823-.122093.1695036-.39341088.5763119-.79360468 1.1526239-1.19379848 1.7221557-.17635659.2576454-.35949613.5085106-.53585271.7593758-.17635659.2508652-.0881783.3051063.10852713.386468.07974872.0460239.17800321.0460239.25775194 0 .18992248-.3186666.3866279-.6780141.60368217-.9831204.21705426-.3051063.45445735-.6373332.67829455-.96278.2238372-.3254468.5155039-.5695318.6782946-.9017587-.1899225-.2305248-.1899225-.2305248-.4680233-.189844h-.0067829zm3.4321705-6.8208216c-.0743231-.4797977-.3608163-.900644-.7800387-1.1458438-.400639-.2612135-.8899735-.3492573-1.3565892-.2440851.150444.2461207.2841441.5020846.4001938.7661559.5936314.1710299 1.1758628.379369 1.7432171.623773h-.006783zM7.02034884 30.5106337c-.29844962-.2237446-.40697675-.1898439-.49515504.1220425-.12209302.4407092-.20348837.8881985-.28488372 1.3560282-.08139535.4678297-.13565892.7525956-.2374031 1.1594041-.05891817.2114879-.04212514.4369011.04748062.6373332 0 .0542412.17635659.3661276.27810077.3322269.09496124-.5695318.20348837-1.1729643.33914729-1.7696167.13565891-.5966524.17635659-1.2678864.35271318-1.8374182zm-1.24806202 5.247829a10.16604344 10.16604344 0 0 0 0 2.7120563c.13909806.0679714.30179341.0679714.44089147 0 .05175381-.2115882.05175381-.4325251 0-.6441133 0-.3390071-.0746124-.6780141-.10174418-1.010241-.02047858-.2314615-.07063097-.4593327-.14922481-.6780141-.04069767-.1152624-.08817829-.3322269-.18992248-.3796879zm2.40116279 4.5901554c.10852713.0813616.50193799-.284766.56976744-.3593475.06782946-.0745816 0 0 0-.0406809.00362353-.01101.00362353-.0228907 0-.0339007-.15569185-.2797791-.33256433-.5472448-.52906976-.8000566-.01517845-.0064044-.03230218-.0064044-.04748062 0-.12209303.0678014-.24418605.1220426-.35949613.1966241-.12575015.0687311-.17387192.2250621-.10852713.3525673.110644.2578278.27212627.4907273.4748062.6847943z"/>
</svg>