<svg xmlns="http://www.w3.org/2000/svg" width="57" height="19">
  <g fill="#AD936D" fill-rule="nonzero" stroke="#AD936D" stroke-width=".3">
    <path d="M11.7014085 9.28h-.1605634c0-.54-.2408451-1.08-.6422536-1.44-.4014084-.36-.8830985-.72-1.44507037-.9-.56197183-.18-1.12394367-.27-1.60563381-.27-.72253521 0-1.36478873.18-2.00704225.45-.64225352.27-1.20422535.72-1.68591549 1.17-.48169014.54-.96338028 1.17-1.28450704 1.89-.32112677.72-.56197184 1.53-.64225353 2.34-.08028169.81-.08028169 1.62.08028169 2.34.16056338.72.40140845 1.35.80281691 1.8.40140845.54.88309859.9 1.44507042 1.17.56197183.27 1.20422535.36 1.92676056.36.64225352 0 1.28450704-.09 2.08732395-.36.72253521-.27 1.44507046-.63 2.08732396-1.26l-.0802817.45c-.80281691.54-1.52535212.99-2.16760565 1.17-.64225352.18-1.36478873.36-2.32816901.36s-1.76619718-.18-2.56901408-.54c-.72253521-.36-1.36478874-.81-1.84647888-1.35S.86338028 15.4.7028169 14.68c-.16056338-.72-.24084507-1.44-.16056338-2.25.16056338-1.17.56197183-2.25 1.28450704-3.24.72253521-.99 1.60563381-1.8 2.64929578-2.34 1.04366197-.54 2.16760563-.9 3.29154929-.9.72253522 0 1.44507043.09 2.24788737.27l.8028169.27c.1605633 0 .3211267.09.4014084.09.2408451 0 .3211268 0 .4014085-.09.0802817-.09.1605633-.18.240845-.36h.1605634l-.3211267 3.15zM22.0577465 6.49l2.328169 10.08c.1605634.54.2408451.9.4014084 1.17.1605634.27.3211268.36.4014085.45.1605634.09.3211268.09.5619718.09v.09h-3.9338028v-.09c.4014085 0 .7225352 0 .9633803-.09.2408451-.09.4014084-.27.4014084-.63 0-.18 0-.45-.0802816-.72v-.09l-.6422536-3.15H18.284507L17 16.48c-.1605634.36-.3211268.72-.3211268.99-.0802817.36 0 .54.1605634.63.1605634.09.4014085.18.7225352.18v.09h-2.8098591v-.09c.4014084 0 .7225352-.18 1.0436619-.45.2408451-.27.5619719-.63.8028169-1.17l4.6563381-10.17h.8028169zm-3.5323944 6.66h3.8535211l-1.284507-5.58-2.5690141 5.58zM32.3338028 6.58l.2408451.36 7.5464789 9.63.9633802-7.65c.0802817-.54.0802817-.99.0802817-1.26s-.0802817-.54-.3211267-.72c-.1605634-.18-.4816902-.27-.8830986-.27v-.18h3.0507042v.18c-.3211268 0-.5619718.09-.7225352.18-.1605634.09-.3211268.27-.4816901.45-.1605634.27-.2408451.54-.2408451.99l-1.2845071 10.35h-.0802816L32.2535211 8.56l-.8830986 7.29c-.0802817.63-.0802817 1.08-.0802817 1.35s.0802817.54.1605634.63c.1605634.27.4816902.45.9633803.45v.09h-3.0507042v-.09c.3211267 0 .6422535-.09.8028169-.18.1605634-.09.4014084-.36.4816901-.72.1605634-.36.2408451-.81.3211268-1.53l.9633803-7.74.240845-1.8M53.0464789 6.49l2.328169 10.08c.1605634.54.2408451.9.4014084 1.17.1605634.27.3211268.36.4014085.45.1605634.09.3211267.09.5619718.09v.09h-3.8535211v-.09c.4014084 0 .7225352 0 .9633803-.09.240845-.09.4014084-.27.4014084-.63 0-.18 0-.45-.0802817-.72v-.09l-.6422535-3.15h-4.1746479l-1.284507 2.88c-.1605634.36-.3211268.72-.3211268.99-.0802817.36 0 .54.1605634.63.1605634.09.4014085.18.7225352.18v.09h-2.9704225v-.09c.4014084 0 .7225352-.18 1.043662-.45.240845-.27.5619718-.63.8028169-1.17l4.656338-10.17h.8830986zm-3.5323944 6.66h3.8535211l-1.284507-5.58-2.5690141 5.58zM22.2333333 2.99038462l-.7407407-.34615385c-.6666667-.25961539-1.1111111-.43269231-1.3333333-.43269231-.2222223 0-.3703704.08653846-.5185186.25961539-.1481481.17307692-.2222222.4326923-.3703703.69230769H18.9c.0740741-.69230769.3703704-1.21153846.7407407-1.55769231C20.0111111 1.17307693 20.4555556 1 20.8259259 1c.1481482 0 .3703704 0 .5925926.08653846.2222222.08653846.4444445.17307692.8148148.34615385.5185186.25961538.8888889.34615384.962963.43269231.0740741 0 .2222222.08653846.3703704.08653846.074074 0 .2222222-.08653846.4444444-.17307693.2222222-.08653846.3703704-.34615384.5185185-.69230769H24.9c-.1481481.60576923-.3703704 1.125-.7407407 1.55769231C23.7888889 3.07692308 23.4185185 3.25 22.9740741 3.25c-.2222222-.08653846-.4444445-.08653846-.7407408-.25961538z"/>
  </g>
</svg>