<svg xmlns="http://www.w3.org/2000/svg" viewBox="0 0 2880.08 381.09"><defs><style>.cls-1{isolation:isolate;}.cls-2{fill:#c29f6d;}.cls-3{fill:none;}</style></defs><title>Asset 3</title><g id="Layer_2" data-name="Layer 2"><g id="Layer_1-2" data-name="Layer 1"><g id="Age-Checker"><g id="Desktop-HD-Copy-28"><g id="CACHAÇA" class="cls-1"><g class="cls-1"><path class="cls-2" d="M253.58,4.1q-2.25,18-7,68.47c0,2.46-1.89,3.69-5.64,3.69s-5.64-1.23-5.64-3.69q0-56.17-51.71-56.17-37.56,0-70.6,25.83t-51.92,69.9q-18.88,44.09-18.88,96.76,0,33.63,21.83,54.74t58.12,21.12q33,0,55-16.82t38.44-55.76q1.64-3.69,6.77-3.69,4.92,0,4.92,3.69-7.38,25.83-18.86,73-47.78,12.72-92.05,12.71-52.08,0-84.25-30.44T0,187.58A172.56,172.56,0,0,1,27.68,93.07Q55.34,49.61,103.42,24.8T208.9,0A228.23,228.23,0,0,1,253.58,4.1Z"/><path class="cls-2" d="M594.09,283.51q0,7.8-4.51,7.79-14,0-32-1.22-15.95-1.24-27-1.24-12.45,0-32.09,1.24-20.71,1.21-34.44,1.22c-1.37,0-2.05-1.22-2.05-3.69q0-7.17,4.92-7.58,24-1.42,33.21-8.3t10.86-27.17l6.53-67.64H438.46L388,240.53q-12.23,16.29-12.22,25.53,0,12.74,24.19,14c1.37,0,2.05,1.21,2.05,3.62a10,10,0,0,1-1.43,5.34,4.12,4.12,0,0,1-3.49,2.31q-12.09,0-26.44-1.22-13.74-1.24-24.81-1.24-8.82,0-26,1.24-17.83,1.21-27.68,1.22c-1.36,0-2.05-1.22-2.05-3.69q0-7.17,4.51-7.58,21.74-2,38.13-11.17t34-30L562.52,3.28A8.13,8.13,0,0,1,569.08,0Q574,0,574,4.1L553.5,241.69q-.21,4.31-.21,8,0,14.76,7.48,21.11T592,280C593.4,280.17,594.09,281.33,594.09,283.51Zm-66.21-219-79.05,99.27h70Z"/><path class="cls-2" d="M944.84,4.1q-2.25,18-7,68.47,0,3.69-5.64,3.69c-3.76,0-5.63-1.23-5.63-3.69q0-56.17-51.72-56.17-37.56,0-70.59,25.83t-51.92,69.9q-18.89,44.09-18.88,96.76,0,33.63,21.83,54.74t58.12,21.12q33,0,55-16.82t38.44-55.76q1.64-3.69,6.76-3.69,4.92,0,4.92,3.69-7.38,25.83-18.86,73-47.76,12.72-92,12.71-52.08,0-84.26-30.44t-32.18-79.84a172.55,172.55,0,0,1,27.67-94.51q27.68-43.45,75.75-68.27T900.15,0A228.33,228.33,0,0,1,944.84,4.1Z"/><path class="cls-2" d="M1364.1,10.18a9,9,0,0,1-1.53,4.83c-1,1.61-2.15,2.41-3.39,2.41q-16.61,1.84-25.72,5t-13.64,8.31q-4.5,5.13-8.2,21.54l-46,193.08a65.07,65.07,0,0,0-2,13.93q0,9.22,8.2,13.74t28.29,7c1.37.28,2,1.43,2,3.48a10.32,10.32,0,0,1-1.43,5.44c-1,1.57-2.12,2.35-3.49,2.35q-14.15,0-34.86-1.22-17.67-1.24-28-1.24t-25.65,1.24q-17.22,1.21-29.93,1.22c-1.37,0-2-1.22-2-3.69a9.58,9.58,0,0,1,1.43-5,4.7,4.7,0,0,1,3.49-2.56q13.94-1.63,22-4.72t12.4-8.4q4.31-5.32,8-21.53L1245.53,154H1108.4l-21.47,91.42a48.41,48.41,0,0,0-2.46,13.95q0,10.65,6.76,14.55T1116,280q2,.21,2,3.48a9.78,9.78,0,0,1-1.53,5.44c-1,1.57-2.15,2.35-3.38,2.35q-14.36,0-32-1.22-15.35-1.24-25.77-1.24-10.23,0-28.07,1.24-19.87,1.21-32.59,1.22c-1.37,0-2-1.22-2-3.69a9,9,0,0,1,1.54-5,4.9,4.9,0,0,1,3.38-2.56q16.4-1.84,25.52-4.92t13.63-8.31q4.51-5.24,8.41-21.42l46-193.08a67.84,67.84,0,0,0,2.06-13.95,15,15,0,0,0-8.1-13.85q-8.12-4.61-28.4-7.08c-1.37,0-2-1.07-2-3.22a11,11,0,0,1,1.43-5.53q1.44-2.52,3.49-2.52,14.14,0,34.86,1.23,17.67,1.23,27.94,1.23t25.65-1.23q17.22-1.23,30.14-1.23c1.36,0,2,1.34,2,4a8.58,8.58,0,0,1-1.64,4.83c-1.1,1.61-2.19,2.41-3.28,2.41q-14,1.45-22,4.63T1141,30.67q-4.31,5.44-8.2,21.66l-21.06,88.5h137.13l21.06-88.5a48.76,48.76,0,0,0,2.45-14q0-10.68-6.76-14.68t-24.8-6.27c-1.37,0-2-1.07-2-3.22a10.37,10.37,0,0,1,1.54-5.53c1-1.68,2.15-2.52,3.38-2.52q14.34,0,32,1.23,15.35,1.23,25.77,1.23t28.28-1.23q19.47-1.23,32-1.23Q1364.1,6.15,1364.1,10.18Z"/><path class="cls-2" d="M1680.17,283.51q0,7.8-4.51,7.79-13.94,0-32-1.22-15.93-1.24-27-1.24-12.45,0-32.09,1.24-20.7,1.21-34.44,1.22c-1.37,0-2-1.22-2-3.69q0-7.17,4.92-7.58,24-1.42,33.21-8.3t10.87-27.17l6.52-67.64h-79.13l-50.47,63.61q-12.22,16.29-12.22,25.53,0,12.74,24.19,14c1.36,0,2,1.21,2,3.62a9.88,9.88,0,0,1-1.44,5.34,4.12,4.12,0,0,1-3.48,2.31q-12.11,0-26.45-1.22-13.74-1.24-24.8-1.24-8.82,0-26,1.24-17.84,1.21-27.67,1.22c-1.37,0-2-1.22-2-3.69q0-7.17,4.51-7.58,21.74-2,38.13-11.17t34-30L1648.6,3.28A8.14,8.14,0,0,1,1655.16,0q4.92,0,4.92,4.1l-20.5,237.59c-.14,2.87-.2,5.54-.2,8q0,14.76,7.48,21.11t31.26,9.23C1679.49,280.17,1680.17,281.33,1680.17,283.51Zm-66.2-219-79.06,99.27h70Z"/><path class="cls-2" d="M2055.53,4.1q-2.27,18-7,68.47,0,3.69-5.64,3.69t-5.64-3.69q0-56.17-51.71-56.17-37.56,0-70.6,25.83t-51.92,69.9q-18.88,44.09-18.88,96.76,0,33.63,21.83,54.74t58.12,21.12q33,0,55-16.82t38.44-55.76q1.64-3.69,6.77-3.69,4.92,0,4.92,3.69-7.38,25.83-18.86,73a352.87,352.87,0,0,1-89.59,12.71l-3.69,5.33a7.37,7.37,0,0,0-1.23,3.69q0,3.28,4.1,5.95,21.32,13.53,21.32,30.55,0,15.78-13.12,26.75t-32.8,11q-11.28,0-17.94-4.2t-6.66-11a11.09,11.09,0,0,1,3.08-7.68,9.82,9.82,0,0,1,7.58-3.39q5.74,0,13.94,6.36,7.38,5.94,12.3,5.94,11.07,0,11.07-13.11,0-12.72-24.6-25.43c-1,0-1.81-.68-2.56-2.05a8.43,8.43,0,0,1-1.13-4.1l.82-3.69,13.53-21.31q-46.74-4.32-74.82-34.24t-28.09-75.64a172.56,172.56,0,0,1,27.68-94.51q27.68-43.45,75.74-68.27T2010.84,0A228.41,228.41,0,0,1,2055.53,4.1Z"/><path class="cls-2" d="M2396,283.51q0,7.8-4.51,7.79-14,0-32-1.22-15.93-1.24-26.95-1.24-12.45,0-32.09,1.24-20.72,1.21-34.44,1.22c-1.37,0-2-1.22-2-3.69q0-7.17,4.92-7.58,24-1.42,33.21-8.3T2313,244.56l6.53-67.64H2240.4l-50.48,63.61q-12.23,16.29-12.22,25.53,0,12.74,24.19,14c1.37,0,2.05,1.21,2.05,3.62a10,10,0,0,1-1.43,5.34,4.12,4.12,0,0,1-3.49,2.31q-12.09,0-26.44-1.22-13.74-1.24-24.81-1.24-8.8,0-26,1.24-17.84,1.21-27.68,1.22c-1.36,0-2-1.22-2-3.69q0-7.17,4.51-7.58,21.74-2,38.13-11.17t34-30L2364.46,3.28A8.13,8.13,0,0,1,2371,0q4.92,0,4.92,4.1l-20.5,237.59q-.21,4.31-.21,8,0,14.76,7.49,21.11T2394,280C2395.34,280.17,2396,281.33,2396,283.51Zm-66.21-219-79.05,99.27h70Z"/></g></g></g></g><ellipse class="cls-3" cx="2638.05" cy="170.86" rx="242.03" ry="7.07"/></g></g></svg>